<?xml version="1.0" encoding="UTF-8"?>
<svg width="512px" height="512px" viewBox="0 0 512 512" version="1.1" xmlns="http://www.w3.org/2000/svg" xmlns:xlink="http://www.w3.org/1999/xlink">
    <!-- Generator: Sketch 41.2 (35397) - http://www.bohemiancoding.com/sketch -->
    <title>512icon</title>
    <desc>Created with Sketch.</desc>
    <defs></defs>
    <g id="Page-1" stroke="none" stroke-width="1" fill="none" fill-rule="evenodd">
        <g id="512icon" fill="#000000">
            <g id="Ligoj" transform="translate(95.000000, 0.000000)">
                <g id="Icon">
                    <path d="M20,229.996102 L20,370.003898 C20,375.52205 24.4782621,380 30.0005468,380 L219.999453,380 C225.51809,380 230,375.519722 230,370.003898 L230,229.996102 C230,224.47795 225.521738,220 219.999453,220 L30.0005468,220 C24.4819098,220 20,224.480278 20,229.996102 Z M0,229.996102 C0,213.429712 13.4410858,200 30.0005468,200 L219.999453,200 C236.568298,200 250,213.43312 250,229.996102 L250,370.003898 C250,386.570288 236.558914,400 219.999453,400 L30.0005468,400 C13.4317023,400 0,386.56688 0,370.003898 L0,229.996102 Z" id="Rectangle-Copy"></path>
                    <path d="M20,29.9961023 L20,170.003898 C20,175.52205 24.4782621,180 30.0005468,180 L219.999453,180 C225.51809,180 230,175.519722 230,170.003898 L230,29.9961023 C230,24.47795 225.521738,20 219.999453,20 L30.0005468,20 C24.4819098,20 20,24.4802779 20,29.9961023 Z M0,29.9961023 C0,13.4297125 13.4410858,0 30.0005468,0 L219.999453,0 C236.568298,0 250,13.4331197 250,29.9961023 L250,170.003898 C250,186.570288 236.558914,200 219.999453,200 L30.0005468,200 C13.4317023,200 0,186.56688 0,170.003898 L0,29.9961023 Z" id="Rectangle"></path>
                    <rect id="CenterLine" x="115" y="100" width="20" height="200" rx="10"></rect>
                    <path d="M124.301906,239.993782 C146.389862,240.379329 164.608236,222.78605 164.993782,200.698094 C165.379329,178.610138 147.78605,160.391764 125.698094,160.006218 C103.610138,159.620671 85.3917643,177.21395 85.0062176,199.301906 C84.6206709,221.389862 102.21395,239.608236 124.301906,239.993782 Z" id="dot"></path>
                </g>
            </g>
        </g>
    </g>
</svg>